HIERARCHY
ROOT Hips
{
  OFFSET 5.84602e-005 68.8428 3.50346
  CHANNELS 6 Xposition Yposition Zposition Zrotation Xrotation Yrotation
  JOINT Spine
  {
    OFFSET 0 8.597 -4.6522
    CHANNELS 3 Zrotation Xrotation Yrotation
    JOINT Spine1
    {
      OFFSET 0 7.8454 0.4098
      CHANNELS 3 Zrotation Xrotation Yrotation
      JOINT Spine2
      {
        OFFSET 0 9.7078 -2.1609
        CHANNELS 3 Zrotation Xrotation Yrotation
        JOINT Neck
        {
          OFFSET 0 21.8761 -0.4549
          CHANNELS 3 Zrotation Xrotation Yrotation
          JOINT Head
          {
            OFFSET 0 12.3537 3.3602
            CHANNELS 3 Zrotation Xrotation Yrotation
            End Site
            {
              OFFSET 0.0001 18.9506 0.5657
            }
          }
        }
        JOINT LeftShoulder
        {
          OFFSET 2.2086 21.1115 7.2329
          CHANNELS 3 Zrotation Xrotation Yrotation
          JOINT LeftArm
          {
            OFFSET 13.1193 3.0282 -4.8998
            CHANNELS 3 Zrotation Xrotation Yrotation
            JOINT LeftForeArm
            {
              OFFSET 27.4081 -0.0973053 -0.2375
              CHANNELS 3 Zrotation Xrotation Yrotation
              JOINT LeftHand
              {
                OFFSET 22.8641 0.0662994 -0.1369
                CHANNELS 3 Zrotation Xrotation Yrotation
                JOINT LeftHandIndex1
                {
                  OFFSET 8.8614 0.775009 2.4612
                  CHANNELS 3 Zrotation Xrotation Yrotation
                  JOINT LeftHandIndex2
                  {
                    OFFSET 3.3146 -0.808304 0.5841
                    CHANNELS 3 Zrotation Xrotation Yrotation
                    JOINT LeftHandIndex3
                    {
                      OFFSET 2.2628 -0.552002 0.3989
                      CHANNELS 3 Zrotation Xrotation Yrotation
                      End Site
                      {
                        OFFSET 1.6102 -0.4807 0.2612
                      }
                    }
                  }
                }
                JOINT LeftHandMiddle1
                {
                  OFFSET 8.9937 0.895004 0.2143
                  CHANNELS 3 Zrotation Xrotation Yrotation
                  JOINT LeftHandMiddle2
                  {
                    OFFSET 4.0984 0.0113983 -0.0242
                    CHANNELS 3 Zrotation Xrotation Yrotation
                    JOINT LeftHandMiddle3
                    {
                      OFFSET 2.2716 0.00689697 -0.0138001
                      CHANNELS 3 Zrotation Xrotation Yrotation
                      End Site
                      {
                        OFFSET 2.0404 -0.1441 0.0027
                      }
                    }
                  }
                }
                JOINT LeftHandRing1
                {
                  OFFSET 8.5234 0.597198 -2.0164
                  CHANNELS 3 Zrotation Xrotation Yrotation
                  JOINT LeftHandRing2
                  {
                    OFFSET 3.7188 -0.188293 -0.2328
                    CHANNELS 3 Zrotation Xrotation Yrotation
                    JOINT LeftHandRing3
                    {
                      OFFSET 2.1191 -0.106598 -0.1332
                      CHANNELS 3 Zrotation Xrotation Yrotation
                      End Site
                      {
                        OFFSET 1.8737 -0.2304 -0.0886
                      }
                    }
                  }
                }
                JOINT LeftHandPinky1
                {
                  OFFSET 7.9094 -0.601089 -3.4825
                  CHANNELS 3 Zrotation Xrotation Yrotation
                  JOINT LeftHandPinky2
                  {
                    OFFSET 2.2874 -0.477005 -0.6314
                    CHANNELS 3 Zrotation Xrotation Yrotation
                    JOINT LeftHandPinky3
                    {
                      OFFSET 1.6774 -0.349396 -0.4633
                      CHANNELS 3 Zrotation Xrotation Yrotation
                      End Site
                      {
                        OFFSET 1.4888 -0.4091 -0.3416
                      }
                    }
                  }
                }
                JOINT LeftHandThumb1
                {
                  OFFSET 1.833 -1.3875 1.3896
                  CHANNELS 3 Zrotation Xrotation Yrotation
                  JOINT LeftHandThumb2
                  {
                    OFFSET 3.4129 -1.121 2.5732
                    CHANNELS 3 Zrotation Xrotation Yrotation
                    JOINT LeftHandThumb3
                    {
                      OFFSET 2.2474 -0.804199 1.6192
                      CHANNELS 3 Zrotation Xrotation Yrotation
                      End Site
                      {
                        OFFSET 1.6527 -0.5689 1.1317
                      }
                    }
                  }
                }
              }
            }
          }
        }
        JOINT RightShoulder
        {
          OFFSET -2.2086 21.1115 7.2329
          CHANNELS 3 Zrotation Xrotation Yrotation
          JOINT RightArm
          {
            OFFSET -13.1216 3.0287 -4.9007
            CHANNELS 3 Zrotation Xrotation Yrotation
            JOINT RightForeArm
            {
              OFFSET -27.4081 -0.0973053 -0.2375
              CHANNELS 3 Zrotation Xrotation Yrotation
              JOINT RightHand
              {
                OFFSET -22.8641 0.0664063 -0.1369
                CHANNELS 3 Zrotation Xrotation Yrotation
                JOINT RightHandIndex1
                {
                  OFFSET -8.8614 0.774994 2.4612
                  CHANNELS 3 Zrotation Xrotation Yrotation
                  JOINT RightHandIndex2
                  {
                    OFFSET -3.3146 -0.808304 0.5841
                    CHANNELS 3 Zrotation Xrotation Yrotation
                    JOINT RightHandIndex3
                    {
                      OFFSET -2.2628 -0.552002 0.3989
                      CHANNELS 3 Zrotation Xrotation Yrotation
                      End Site
                      {
                        OFFSET -1.6102 -0.4807 0.2612
                      }
                    }
                  }
                }
                JOINT RightHandMiddle1
                {
                  OFFSET -8.9937 0.894989 0.2143
                  CHANNELS 3 Zrotation Xrotation Yrotation
                  JOINT RightHandMiddle2
                  {
                    OFFSET -4.0984 0.0113983 -0.0242
                    CHANNELS 3 Zrotation Xrotation Yrotation
                    JOINT RightHandMiddle3
                    {
                      OFFSET -2.2716 0.00691223 -0.0138001
                      CHANNELS 3 Zrotation Xrotation Yrotation
                      End Site
                      {
                        OFFSET -2.0404 -0.1441 0.0027
                      }
                    }
                  }
                }
                JOINT RightHandRing1
                {
                  OFFSET -8.5234 0.597198 -2.0164
                  CHANNELS 3 Zrotation Xrotation Yrotation
                  JOINT RightHandRing2
                  {
                    OFFSET -3.7188 -0.188309 -0.2328
                    CHANNELS 3 Zrotation Xrotation Yrotation
                    JOINT RightHandRing3
                    {
                      OFFSET -2.1191 -0.106598 -0.1332
                      CHANNELS 3 Zrotation Xrotation Yrotation
                      End Site
                      {
                        OFFSET -1.8737 -0.2304 -0.0886
                      }
                    }
                  }
                }
                JOINT RightHandPinky1
                {
                  OFFSET -7.9094 -0.601105 -3.4825
                  CHANNELS 3 Zrotation Xrotation Yrotation
                  JOINT RightHandPinky2
                  {
                    OFFSET -2.2874 -0.477005 -0.6314
                    CHANNELS 3 Zrotation Xrotation Yrotation
                    JOINT RightHandPinky3
                    {
                      OFFSET -1.6774 -0.349396 -0.4633
                      CHANNELS 3 Zrotation Xrotation Yrotation
                      End Site
                      {
                        OFFSET -1.4888 -0.4091 -0.3416
                      }
                    }
                  }
                }
                JOINT RightHandThumb1
                {
                  OFFSET -1.833 -1.38751 1.3896
                  CHANNELS 3 Zrotation Xrotation Yrotation
                  JOINT RightHandThumb2
                  {
                    OFFSET -3.41299 -1.12099 2.5732
                    CHANNELS 3 Zrotation Xrotation Yrotation
                    JOINT RightHandThumb3
                    {
                      OFFSET -2.24741 -0.804108 1.6192
                      CHANNELS 3 Zrotation Xrotation Yrotation
                      End Site
                      {
                        OFFSET -1.6527 -0.5689 1.1317
                      }
                    }
                  }
                }
              }
            }
          }
        }
      }
    }
  }
  JOINT RightUpLeg
  {
    OFFSET -9.1966 3.8861 -0.7581
    CHANNELS 3 Zrotation Xrotation Yrotation
    JOINT RightLeg
    {
      OFFSET -0.7359 -41.0265 0
      CHANNELS 3 Zrotation Xrotation Yrotation
      JOINT RightFoot
      {
        OFFSET 0 -40.2855 0
        CHANNELS 3 Zrotation Xrotation Yrotation
        JOINT RightToeBase
        {
          OFFSET 0 -5.6122 11.7359
          CHANNELS 3 Zrotation Xrotation Yrotation
          End Site
          {
            OFFSET 0 0 7.8731
          }
        }
      }
    }
  }
  JOINT LeftUpLeg
  {
    OFFSET 9.1965 3.8864 -0.7581
    CHANNELS 3 Zrotation Xrotation Yrotation
    JOINT LeftLeg
    {
      OFFSET 0.7359 -41.0268 0
      CHANNELS 3 Zrotation Xrotation Yrotation
      JOINT LeftFoot
      {
        OFFSET 0 -40.2855 0
        CHANNELS 3 Zrotation Xrotation Yrotation
        JOINT LeftToeBase
        {
          OFFSET 0 -5.6122 11.7359
          CHANNELS 3 Zrotation Xrotation Yrotation
          End Site
          {
            OFFSET 0 0 7.8731
          }
        }
      }
    }
  }
}
MOTION
Frames:	5
Frame Time:	0.0333333
0.650585 13.3281 11.0921 -7.08406e-015 -0.549927 180 -0.0406407 6.34186 -0.0328591 -0.0783223 12.6838 -0.0617324 -0.0783223 12.6837 -0.0617324 -4.36192 0.431956 -6.56355 -4.33024 -15.8048 -0.893865 -19.0079 -30.4128 -27.1935 -24.1601 8.54395 -37.0809 -66.7013 78.6957 1.56497 72.3859 -1.88718 1.20926 1.32417e-031 2.38542e-015 -3.18055e-015 -7.95139e-016 2.38542e-015 3.18055e-015 -3.88546e-007 1.67528e-007 5.05158e-008 1.32417e-031 2.38542e-015 -3.18055e-015 -0.0146252 -8.92595e-005 -5.21818e-006 -3.88549e-007 1.67521e-007 5.05375e-008 1.32417e-031 2.38542e-015 -3.18055e-015 -0.0187665 -0.00117581 6.11181e-005 -2.84647e-007 3.01733e-007 9.07119e-007 1.32417e-031 2.38542e-015 -3.18055e-015 -0.0123006 -0.00325585 0.000675325 -3.88547e-007 1.67524e-007 5.0545e-008 1.32417e-031 2.38542e-015 -3.18055e-015 -7.95139e-016 2.38542e-015 3.18055e-015 -3.88546e-007 1.67528e-007 5.05158e-008 22.4701 -28.2256 27.3472 22.1663 7.45852 43.7065 61.6496 66.543 -0.650409 -74.9227 -3.10417 -1.54037 -1.67489e-006 -4.22045e-007 -2.339e-006 -7.75342e-007 -5.62148e-008 3.15958e-006 -2.02672e-006 -3.80807e-007 -3.231e-006 -1.67489e-006 -4.22045e-007 -2.339e-006 0.0149883 -9.00351e-005 1.35595e-007 -1.85104e-006 -4.01789e-007 -2.78494e-006 -1.67489e-006 -4.22045e-007 -2.339e-006 0.0189987 -0.0011916 -6.0968e-005 -2.02449e-006 -3.81486e-007 -3.23092e-006 -1.67489e-006 -4.22045e-007 -2.339e-006 0.0122557 -0.00324432 -0.000675936 -1.85107e-006 -4.01684e-007 -2.78489e-006 -1.67489e-006 -4.22045e-007 -2.339e-006 -7.75342e-007 -5.62148e-008 3.15958e-006 -2.02672e-006 -3.80807e-007 -3.231e-006 -119.469 -44.4098 -134.245 -140.307 65.55 142.261 -1.00306 -7.87031 -2.98974 7.41258e-007 -1.16915e-007 1.18765e-006 119.475 -44.4262 134.223 140.337 65.574 -142.29 0.996564 -7.86213 2.9641 -2.23189e-007 1.37243e-008 -3.22292e-006 
0.65058 13.4053 11.2078 -7.15163e-015 -1.10161 180 -0.04021 6.06553 -0.033435 -0.0774947 12.1311 -0.0630963 -0.0774946 12.1311 -0.0630964 -4.3293 -0.112485 -6.55186 -4.31749 -16.9512 -0.970369 -19.3709 -29.3533 -27.1526 -24.1601 8.54395 -37.0809 -65.4672 78.7553 1.62685 72.4511 -2.59556 1.08402 -2.74693e-007 -1.33663e-006 3.21485e-006 -1.65044e-006 2.24382e-006 -2.54418e-006 8.99118e-008 -1.2539e-006 5.47691e-006 -2.74693e-007 -1.33663e-006 3.21485e-006 -0.0146453 -8.60508e-005 1.12569e-006 -2.74494e-007 -1.33704e-006 3.21468e-006 -2.74693e-007 -1.33663e-006 3.21485e-006 -0.0187621 -0.00117494 5.69717e-005 -2.74408e-007 -1.33714e-006 3.21464e-006 -2.74693e-007 -1.33663e-006 3.21485e-006 -0.0122568 -0.00324205 0.000674324 -2.74445e-007 -1.33693e-006 3.21471e-006 -2.74693e-007 -1.33663e-006 3.21485e-006 -1.65044e-006 2.24382e-006 -2.54418e-006 8.99118e-008 -1.2539e-006 5.47691e-006 22.6318 -27.3085 27.1881 22.1663 7.45853 43.7065 60.7654 66.6526 -0.672359 -74.8815 -3.64094 -1.43912 1.52247e-006 4.67605e-007 -3.25069e-006 2.24478e-006 -3.52192e-007 2.68459e-006 1.52247e-006 4.67605e-007 -3.25069e-006 1.52247e-006 4.67605e-007 -3.25069e-006 0.015031 -9.10386e-005 1.08639e-005 1.75333e-006 4.48233e-007 -2.81347e-006 1.52247e-006 4.67605e-007 -3.25069e-006 0.0189945 -0.00119068 -5.35542e-005 1.52219e-006 4.67082e-007 -3.25078e-006 1.52247e-006 4.67605e-007 -3.25069e-006 0.0122664 -0.00324564 -0.000668894 1.29078e-006 4.85838e-007 -3.68814e-006 1.52247e-006 4.67605e-007 -3.25069e-006 2.24478e-006 -3.52192e-007 2.68459e-006 1.52247e-006 4.67605e-007 -3.25069e-006 -119.984 -44.5145 -134.761 -140.309 65.5492 142.263 -0.744598 -7.87399 -3.25381 -1.00407e-007 -3.47281e-008 9.97039e-009 119.989 -44.531 134.74 140.339 65.5732 -142.293 0.738184 -7.86548 3.22834 -5.0209e-007 1.73487e-007 4.98416e-008 
0.650575 13.4833 11.3237 -7.21923e-015 -1.65321 180 -0.039784 5.78921 -0.034008 -0.0766858 11.5785 -0.0644491 -0.0766858 11.5785 -0.0644491 -4.29653 -0.657234 -6.53985 -4.30625 -18.0984 -1.04714 -19.7309 -28.2944 -27.1045 -24.1601 8.54395 -37.0809 -64.0787 77.6858 1.50067 72.5148 -3.30396 0.959548 7.72664e-007 -3.44137e-007 -1.00627e-007 -1.59028e-015 7.95139e-015 3.18055e-015 7.72664e-007 -3.44137e-007 -1.00627e-007 7.72664e-007 -3.44137e-007 -1.00627e-007 -0.014601 -8.97163e-005 1.59805e-006 8.09328e-007 -5.28618e-007 -7.91192e-007 7.72664e-007 -3.44137e-007 -1.00627e-007 -0.0187511 -0.00117701 6.40256e-005 7.72672e-007 -3.4412e-007 -1.00691e-007 7.72664e-007 -3.44137e-007 -1.00627e-007 -0.0122435 -0.00324151 0.000675153 7.72665e-007 -3.44129e-007 -1.00686e-007 7.72664e-007 -3.44137e-007 -1.00627e-007 -1.59028e-015 7.95139e-015 3.18055e-015 7.72664e-007 -3.44137e-007 -1.00627e-007 22.7949 -26.392 27.0275 22.1663 7.45852 43.7065 59.8811 66.755 -0.693952 -74.8392 -4.1776 -1.33745 1.28635e-006 -3.50652e-007 2.01775e-008 1.14144e-006 -3.42006e-007 -1.94265e-007 9.96524e-007 -3.3336e-007 -4.08708e-007 1.28635e-006 -3.50652e-007 2.01775e-008 0.015006 -9.11375e-005 3.94748e-006 1.28534e-006 -3.50643e-007 2.02222e-008 1.28635e-006 -3.50652e-007 2.01775e-008 0.0190014 -0.0011927 -5.48605e-005 1.28508e-006 -3.50568e-007 2.0226e-008 1.28635e-006 -3.50652e-007 2.01775e-008 0.0122867 -0.00325218 -0.000682834 1.28553e-006 -3.50423e-007 2.02246e-008 1.28635e-006 -3.50652e-007 2.01775e-008 1.14144e-006 -3.42006e-007 -1.94265e-007 9.96524e-007 -3.3336e-007 -4.08708e-007 -120.5 -44.6158 -135.28 -140.311 65.5482 142.266 -0.486099 -7.87783 -3.51785 3.01274e-007 1.04147e-007 -2.94749e-008 120.505 -44.6325 135.259 140.341 65.5722 -142.296 0.479713 -7.86896 3.49255 -2.00871e-007 6.93704e-008 1.96446e-008 
0.65057 13.562 11.44 -7.28685e-015 -2.20476 180 -0.0393626 5.51295 -0.0345782 -0.0758958 11.0261 -0.0657912 -0.0758958 11.0261 -0.0657911 -4.26365 -1.20173 -6.52755 -4.29657 -19.2463 -1.12424 -20.0883 -27.2364 -27.0494 -24.1601 8.54395 -37.0809 -62.7107 76.7053 1.40633 72.577 -4.01233 0.835786 7.95139e-016 -3.18055e-015 -6.36111e-015 2.38542e-015 -2.38542e-015 -6.36111e-015 -1.59028e-015 -2.38542e-015 -1.59028e-014 7.95139e-016 -3.18055e-015 -6.36111e-015 -0.01462 -9.04703e-005 -3.81386e-006 -0 0 9.54166e-015 7.95139e-016 -3.18055e-015 -6.36111e-015 -0.0187675 -0.00117612 5.66085e-005 -3.18055e-015 7.95139e-016 6.36111e-015 7.95139e-016 -3.18055e-015 -6.36111e-015 -0.0122863 -0.00325631 0.00067853 -3.97569e-015 -3.97569e-015 3.18055e-015 7.95139e-016 -3.18055e-015 -6.36111e-015 2.38542e-015 -2.38542e-015 -6.36111e-015 -1.59028e-015 -2.38542e-015 -1.59028e-014 22.9596 -25.4763 26.8653 22.1663 7.45851 43.7065 58.9967 66.8508 -0.715268 -74.7961 -4.7141 -1.23534 3.46179e-007 -1.54691e-008 4.20756e-007 1.68802e-007 1.14888e-006 -1.89802e-007 1.59028e-015 -6.36111e-015 -3.18055e-015 3.46179e-007 -1.54691e-008 4.20756e-007 0.0150003 -9.04334e-005 -4.28158e-008 3.44156e-007 -1.54019e-008 4.20758e-007 3.46179e-007 -1.54691e-008 4.20756e-007 0.019012 -0.00119199 -5.94353e-005 -1.59028e-015 2.38542e-015 -3.18055e-015 3.46179e-007 -1.54691e-008 4.20756e-007 0.0122714 -0.00324999 -0.000681671 1.19271e-015 -1.59028e-015 6.36111e-015 3.46179e-007 -1.54691e-008 4.20756e-007 1.68802e-007 1.14888e-006 -1.89802e-007 1.59028e-015 -6.36111e-015 -3.18055e-015 -121.019 -44.7137 -135.801 -140.313 65.5473 142.269 -0.227479 -7.88187 -3.78179 -1.08792e-007 1.48335e-008 -3.23351e-006 121.024 -44.7305 135.78 140.343 65.5713 -142.298 0.221169 -7.87255 3.75669 3.19719e-007 2.7023e-007 -2.02162e-006 
0.650566 13.6413 11.5564 -7.35451e-015 -2.7562 180 -0.0389374 5.23679 -0.0351381 -0.075108 10.4738 -0.0671083 -0.075108 10.4738 -0.0671083 -4.23067 -1.74588 -6.51488 -4.28846 -20.3944 -1.20171 -20.4432 -26.1796 -26.9875 -24.1601 8.54395 -37.0809 -61.355 75.8035 1.33413 72.6377 -4.72061 0.712716 -7.95139e-016 1.59028e-015 6.36111e-015 -3.58399e-007 -7.65299e-007 6.60473e-008 7.95139e-016 3.97569e-015 9.54166e-015 -7.95139e-016 1.59028e-015 6.36111e-015 -0.0145882 -9.10383e-005 2.35027e-006 -1.59028e-015 7.95139e-016 9.54166e-015 -7.95139e-016 1.59028e-015 6.36111e-015 -0.018764 -0.00117817 5.87149e-005 5.97389e-007 -1.02119e-008 2.64325e-006 -7.95139e-016 1.59028e-015 6.36111e-015 -0.0122378 -0.00323886 0.000672706 3.97569e-015 1.59028e-015 1.27222e-014 -7.95139e-016 1.59028e-015 6.36111e-015 -3.58399e-007 -7.65299e-007 6.60473e-008 7.95139e-016 3.97569e-015 9.54166e-015 23.1258 -24.5615 26.7015 22.1663 7.45853 43.7065 58.1124 66.9405 -0.736329 -74.7519 -5.25043 -1.13273 1.59028e-015 -2.38542e-015 -0 -4.02133e-007 1.35474e-008 -4.12776e-007 4.02133e-007 -1.35474e-008 4.12776e-007 1.59028e-015 -2.38542e-015 -0 0.0150131 -9.06694e-005 -4.16541e-007 7.95139e-016 -5.96354e-016 -0 1.59028e-015 -2.38542e-015 -0 0.0189931 -0.00119116 -6.25964e-005 -0 -2.18663e-015 -0 1.59028e-015 -2.38542e-015 -0 0.0122609 -0.00324838 -0.000680525 -4.77083e-015 -2.5842e-015 -9.54166e-015 1.59028e-015 -2.38542e-015 -0 -4.02133e-007 1.35474e-008 -4.12776e-007 4.02133e-007 -1.35474e-008 4.12776e-007 -121.54 -44.808 -136.324 -140.314 65.5465 142.271 0.0309457 -7.88907 -4.04576 4.79905e-007 1.4154e-006 7.61697e-006 121.544 -44.8251 136.304 140.344 65.5705 -142.301 -0.037218 -7.88002 4.02083 3.51897e-007 2.77088e-007 -4.48877e-006 
